<?xml version="1.0" encoding="UTF-8"?><svg id="Layer_2" xmlns="http://www.w3.org/2000/svg" viewBox="0 0 100 100"><defs><style>.cls-1{fill:#1e2525;}.cls-2{fill:red;opacity:0;}.cls-3{fill:#eb283a;}</style></defs><g id="Layer_1-2"><rect class="cls-2" width="100" height="100"/><path class="cls-1" d="M75.55,76.12c-.23,0-.47-.05-.68-.16l-13.04-6.65H31.64c-5.61,0-10.18-4.57-10.18-10.18v-23.15c0-5.61,4.57-10.18,10.18-10.18h35.23c5.61,0,10.18,4.57,10.18,10.18v38.64c0,.52-.27,1.01-.72,1.28-.24,.15-.51,.22-.78,.22ZM31.64,28.8c-3.96,0-7.18,3.22-7.18,7.18v23.15c0,3.96,3.22,7.18,7.18,7.18h30.55c.24,0,.47,.06,.68,.16l11.18,5.7V35.98c0-3.96-3.22-7.18-7.18-7.18H31.64Z"/><path class="cls-1" d="M74.55,81.12c-.08,0-.15-.02-.23-.05l-13.36-6.81c-.25-.12-.34-.43-.22-.67,.12-.25,.43-.34,.67-.22l13.36,6.81c.25,.12,.34,.43,.22,.67-.09,.17-.26,.27-.45,.27Z"/><path class="cls-1" d="M61.19,74.31H30.64c-.28,0-.5-.22-.5-.5s.22-.5,.5-.5h30.55c.28,0,.5,.22,.5,.5s-.22,.5-.5,.5Z"/><g><g><rect class="cls-1" x="39.21" y="37.24" width="4.95" height="8.06" rx="2.48" ry="2.48"/><rect class="cls-1" x="54.35" y="37.24" width="4.95" height="8.06" rx="2.48" ry="2.48"/></g><g><path class="cls-3" d="M56.04,52.7s-13.57,0-13.57,0h0c0,2.7,2.19,4.88,4.88,4.88h3.8c2.7,0,4.88-2.19,4.88-4.88,0,0,0,0,0,0Z"/><path class="cls-3" d="M51.16,59.08h-3.8c-3.52,0-6.38-2.86-6.38-6.38,0-.83,.67-1.5,1.5-1.5h13.57c.83,0,1.5,.67,1.5,1.5,0,3.52-2.86,6.38-6.38,6.38Zm-6.83-4.88c.55,1.11,1.7,1.88,3.03,1.88h3.8c1.33,0,2.48-.77,3.03-1.88h-9.86Z"/></g></g></g></svg>