<?xml version="1.0" encoding="UTF-8"?><svg id="Layer_2" xmlns="http://www.w3.org/2000/svg" viewBox="0 0 100 100"><defs><style>.cls-1{fill:#1e2525;}.cls-2{fill:red;opacity:0;}</style></defs><g id="Layer_1-2"><rect class="cls-2" width="100" height="100"/><g><path class="cls-1" d="M44.2,64.89c-5.3,0-10.6-2.02-14.64-6.05-8.07-8.07-8.07-21.21,0-29.28,8.07-8.07,21.2-8.07,29.28,0,8.07,8.07,8.07,21.21,0,29.28-4.04,4.04-9.34,6.05-14.64,6.05Zm0-37.39c-4.28,0-8.55,1.63-11.81,4.88-6.51,6.51-6.51,17.11,0,23.62,6.51,6.51,17.11,6.51,23.62,0,6.51-6.51,6.51-17.11,0-23.62-3.26-3.26-7.53-4.88-11.81-4.88Z"/><path class="cls-1" d="M74.5,76.5c-.51,0-1.02-.2-1.41-.59l-11.07-11.07c-.78-.78-.78-2.05,0-2.83,.78-.78,2.05-.78,2.83,0l11.07,11.07c.78,.78,.78,2.05,0,2.83-.39,.39-.9,.59-1.41,.59Z"/></g></g></svg>