<?xml version="1.0" encoding="UTF-8"?><svg id="Layer_2" xmlns="http://www.w3.org/2000/svg" viewBox="0 0 100 100"><defs><style>.cls-1{fill:#1e2525;}.cls-2{fill:red;opacity:0;}</style></defs><g id="Layer_1-2"><rect class="cls-2" width="100" height="100"/><g><path class="cls-1" d="M50.13,66.34s-.09,0-.13,0c-.51,0-1.02-.2-1.41-.59l-12.6-12.6c-.78-.78-.78-2.05,0-2.83,.78-.78,2.05-.78,2.83,0l9.31,9.31V22.77c0-1.1,.9-2,2-2s2,.9,2,2V59.38l9.05-9.05c.78-.78,2.04-.78,2.82,0,.78,.78,.79,2.04,.01,2.82l-12.47,12.6c-.38,.39-.9,.59-1.42,.59Z"/><path class="cls-1" d="M73.2,79.23H26.8c-6.19,0-11.22-5.03-11.22-11.22v-16.56c0-1.1,.9-2,2-2s2,.9,2,2v16.56c0,3.98,3.24,7.22,7.22,7.22h46.4c3.98,0,7.22-3.24,7.22-7.22v-16.56c0-1.1,.9-2,2-2s2,.9,2,2v16.56c0,6.19-5.04,11.22-11.22,11.22Z"/></g></g></svg>