<?xml version="1.0" encoding="UTF-8"?><svg id="Layer_2" xmlns="http://www.w3.org/2000/svg" viewBox="0 0 100 100"><defs><style>.cls-1{fill:#1e2525;}.cls-2{fill:red;opacity:0;}.cls-3{fill:#eb283a;}</style></defs><g id="Layer_1-2"><rect class="cls-2" width="100" height="100"/><g><path class="cls-1" d="M49.07,67.71c-18.57,0-22.47-9.91-22.47-11.86v-10.32c0-.83,.67-1.5,1.5-1.5s1.5,.67,1.5,1.5v10.25c.33,1.94,4.52,8.93,19.47,8.93s19.14-6.99,19.47-8.93v-10.25c0-.83,.67-1.5,1.5-1.5s1.5,.67,1.5,1.5v10.32c0,1.95-3.91,11.86-22.47,11.86Zm19.47-11.89v0Zm-38.94,0v0Z"/><path class="cls-1" d="M45.07,71.71c-17.51,0-21.47-10.02-21.47-11.86,0-.28,.22-.5,.5-.5s.5,.22,.5,.5c0,.11,2.4,10.86,20.47,10.86,.28,0,.5,.22,.5,.5s-.22,.5-.5,.5Z"/><path class="cls-1" d="M49.07,52.26c-.12,0-.24-.01-.36-.04L14.71,43.73c-.67-.17-1.14-.77-1.14-1.46s.47-1.29,1.14-1.46l33.99-8.48c.24-.06,.49-.06,.73,0l33.99,8.48c.67,.17,1.14,.77,1.14,1.46s-.47,1.29-1.14,1.46l-33.99,8.48c-.12,.03-.24,.04-.36,.04Zm-27.79-9.98l27.79,6.94,27.79-6.94-27.79-6.94-27.79,6.94Z"/><path class="cls-1" d="M83.05,55.59c-.83,0-1.5-.67-1.5-1.5v-11.81c0-.83,.67-1.5,1.5-1.5s1.5,.67,1.5,1.5v11.81c0,.83-.67,1.5-1.5,1.5Z"/><g><path class="cls-3" d="M81.14,64.59c-.47,0-.92-.22-1.2-.6-.28-.38-.37-.86-.24-1.32l1.91-6.63c.19-.64,.77-1.08,1.44-1.08s1.26,.44,1.44,1.08l1.92,6.63c.13,.45,.04,.94-.24,1.32-.28,.38-.73,.6-1.2,.6h-3.83Z"/><path class="cls-1" d="M83.05,56.46l1.91,6.63h-3.83l1.91-6.63m0-3c-1.34,0-2.51,.88-2.88,2.17l-1.91,6.63c-.26,.91-.08,1.88,.48,2.64,.57,.75,1.45,1.2,2.4,1.2h3.83c.94,0,1.83-.44,2.4-1.2,.57-.75,.75-1.73,.48-2.64l-1.91-6.63c-.37-1.28-1.55-2.17-2.88-2.17h0Z"/></g></g></g></svg>