<?xml version="1.0" encoding="UTF-8"?><svg id="Layer_2" xmlns="http://www.w3.org/2000/svg" viewBox="0 0 100 100"><defs><style>.cls-1{fill:#1e2525;}.cls-2{fill:red;opacity:0;}</style></defs><g id="Layer_1-2"><rect class="cls-2" width="100" height="100"/><path class="cls-1" d="M38.19,35.96l1.98-4.89c.62-1.52,2.09-2.51,3.73-2.51h12.19c1.64,0,3.12,.99,3.73,2.51l1.98,4.89"/><path class="cls-1" d="M69.9,35.96H30.1c-3.67,0-6.65,2.98-6.65,6.65v22.19c0,3.67,2.98,6.65,6.65,6.65h39.81c3.67,0,6.65-2.98,6.65-6.65v-22.19c0-3.67-2.98-6.65-6.65-6.65Zm-19.9,28.47c-5.92,0-10.72-4.8-10.72-10.72s4.8-10.72,10.72-10.72,10.72,4.8,10.72,10.72-4.8,10.72-10.72,10.72Z"/><circle class="cls-1" cx="50" cy="53.7" r="6.66"/></g></svg>