<?xml version="1.0" encoding="UTF-8"?><svg id="Layer_2" xmlns="http://www.w3.org/2000/svg" viewBox="0 0 100 100"><defs><style>.cls-1{fill:#1e2525;}.cls-2{fill:red;opacity:0;}</style></defs><g id="Layer_1-2"><rect class="cls-2" width="100" height="100"/><g><path class="cls-1" d="M50,52.37c-1.1,0-2-.9-2-2V23.72c0-1.1,.9-2,2-2s2,.9,2,2v26.65c0,1.1-.9,2-2,2Z"/><path class="cls-1" d="M50,78.28c-12.54,0-22.75-10.21-22.75-22.75,0-8.4,4.61-16.08,12.04-20.06,.97-.52,2.19-.15,2.71,.82,.52,.97,.15,2.19-.82,2.71-6.12,3.28-9.93,9.61-9.93,16.53,0,10.34,8.41,18.75,18.75,18.75s18.75-8.41,18.75-18.75c0-6.92-3.8-13.25-9.93-16.53-.97-.52-1.34-1.73-.82-2.71,.52-.97,1.73-1.34,2.71-.82,7.43,3.97,12.04,11.66,12.04,20.06,0,12.54-10.21,22.75-22.75,22.75Z"/></g></g></svg>