<?xml version="1.0" encoding="UTF-8"?><svg id="Layer_2" xmlns="http://www.w3.org/2000/svg" viewBox="0 0 100 100"><defs><style>.cls-1{fill:#1e2525;}.cls-2{fill:red;opacity:0;}.cls-3{fill:#eb283a;}</style></defs><g id="Layer_1-2"><rect class="cls-2" width="100" height="100"/><g><path class="cls-1" d="M65.57,31l-4.22-4.22c-1.96-1.96-5.16-1.96-7.12,0l-5.6,5.6s0,0,0,0,0,0,0,0l-14.26,14.26-4.98,4.98c-3.03,3.03-2.51,8.24-2.08,10.6l-2.38,2.38c-.78,.78-.78,2.05,0,2.83,.39,.39,.9,.59,1.41,.59s1.02-.2,1.41-.59l2.38-2.38c.87,.16,2.13,.33,3.53,.33,2.38,0,5.16-.5,7.06-2.41l4.98-4.98,19.86-19.86c1.96-1.96,1.96-5.16,0-7.12Zm-27.67,29.14c-1.47,1.47-4.73,1.33-6.71,1.02-.31-1.99-.45-5.24,1.02-6.71l4.98-4.98,12.84-12.84,5.69,5.69-12.84,12.84-4.98,4.98Zm24.85-24.85l-4.19,4.19-5.69-5.69,4.19-4.19c.39-.39,1.08-.39,1.47,0l4.22,4.22c.2,.2,.3,.46,.3,.73s-.11,.54-.3,.73Z"/><path class="cls-3" d="M73.66,65.96h-18.69c-1.1,0-2-.9-2-2s.9-2,2-2h18.69c1.1,0,2,.9,2,2s-.9,2-2,2Z"/><path class="cls-1" d="M73.66,74.7H26.34c-1.1,0-2-.9-2-2s.9-2,2-2h47.32c1.1,0,2,.9,2,2s-.9,2-2,2Z"/></g></g></svg>