<?xml version="1.0" encoding="UTF-8"?><svg id="Layer_2" xmlns="http://www.w3.org/2000/svg" viewBox="0 0 100 100"><defs><style>.cls-1{fill:#1e2525;}.cls-2{fill:red;opacity:0;}.cls-3{fill:#eb283a;}</style></defs><g id="Layer_1-2"><rect class="cls-2" width="100" height="100"/><path class="cls-1" d="M72.57,72.24H27.43c-3.82,0-6.93-3.11-6.93-6.93v-30.64c0-3.82,3.11-6.93,6.93-6.93h45.15c3.82,0,6.93,3.11,6.93,6.93v30.64c0,3.82-3.11,6.93-6.93,6.93ZM27.43,30.76c-2.17,0-3.93,1.76-3.93,3.93v30.64c0,2.16,1.76,3.93,3.93,3.93h45.15c2.17,0,3.93-1.76,3.93-3.93v-30.64c0-2.16-1.76-3.93-3.93-3.93H27.43Z"/><path class="cls-1" d="M83,43.14c-.28,0-.5-.22-.5-.5v-8.12c0-5.39-4.38-9.77-9.77-9.77h-21.73c-.28,0-.5-.22-.5-.5s.22-.5,.5-.5h21.73c5.94,0,10.77,4.83,10.77,10.77v8.12c0,.28-.22,.5-.5,.5Z"/><path class="cls-1" d="M78,40.46H22c-.83,0-1.5-.67-1.5-1.5s.67-1.5,1.5-1.5h56c.83,0,1.5,.67,1.5,1.5s-.67,1.5-1.5,1.5Z"/><path class="cls-1" d="M78,62.54H22c-.83,0-1.5-.67-1.5-1.5s.67-1.5,1.5-1.5h56c.83,0,1.5,.67,1.5,1.5s-.67,1.5-1.5,1.5Z"/><path class="cls-3" d="M47.55,56.42h0c-.4,0-.78-.16-1.06-.44l-4.94-4.94c-.59-.59-.59-1.54,0-2.12,.59-.59,1.54-.59,2.12,0l3.88,3.88,8.77-8.77c.59-.59,1.54-.59,2.12,0,.59,.59,.59,1.54,0,2.12l-9.83,9.83c-.28,.28-.66,.44-1.06,.44Z"/></g></svg>