<?xml version="1.0" encoding="UTF-8"?><svg id="Layer_2" xmlns="http://www.w3.org/2000/svg" viewBox="0 0 100 100"><defs><style>.cls-1{fill:#1e2525;}.cls-2{fill:red;opacity:0;}.cls-3{fill:#eb283a;}</style></defs><g id="Layer_1-2"><rect class="cls-2" width="100" height="100"/><g><path class="cls-1" d="M50,50.72c-7.02,0-12.73-5.71-12.73-12.73s5.71-12.73,12.73-12.73,12.73,5.71,12.73,12.73-5.71,12.73-12.73,12.73Zm0-22.47c-5.37,0-9.73,4.37-9.73,9.73s4.37,9.73,9.73,9.73,9.73-4.37,9.73-9.73-4.37-9.73-9.73-9.73Z"/><circle class="cls-3" cx="50" cy="66.49" r="6.76"/><path class="cls-1" d="M71.02,71.74c-.83,0-1.5-.67-1.5-1.5,0-10.76-8.76-19.52-19.52-19.52s-19.52,8.76-19.52,19.52c0,.83-.67,1.5-1.5,1.5s-1.5-.67-1.5-1.5c0-12.42,10.1-22.52,22.52-22.52s22.52,10.1,22.52,22.52c0,.83-.67,1.5-1.5,1.5Z"/></g><path class="cls-1" d="M77.02,72.33c-.28,0-.5-.22-.5-.5,0-8.87-4.02-17.67-10.5-22.97-.21-.17-.25-.49-.07-.7s.49-.25,.7-.07c6.7,5.49,10.86,14.59,10.86,23.75,0,.28-.22,.5-.5,.5Z"/></g></svg>