<?xml version="1.0" encoding="UTF-8"?><svg id="Layer_2" xmlns="http://www.w3.org/2000/svg" viewBox="0 0 100 100"><defs><style>.cls-1{fill:#1e2525;}.cls-2{fill:red;opacity:0;}.cls-3{fill:#eb283a;}</style></defs><g id="Layer_1-2"><rect class="cls-2" width="100" height="100"/><g><g><path class="cls-3" d="M31.52,48.72l-6.37,1.71-4.28-5.85c-.55-.78-.16-1.87,.76-2.12h0c1.36-.36,2.81-.02,3.86,.91l6.02,5.35Z"/><g><path class="cls-1" d="M16.76,60.56c-.66,0-1.27-.44-1.45-1.11-.21-.8,.26-1.62,1.06-1.84l12.1-3.24c.8-.21,1.62,.26,1.84,1.06,.21,.8-.26,1.62-1.06,1.84l-12.1,3.24c-.13,.04-.26,.05-.39,.05Z"/><path class="cls-1" d="M21.23,67.17c-.66,0-1.27-.44-1.45-1.11-.21-.8,.26-1.62,1.06-1.84l12.29-3.29c.8-.21,1.62,.26,1.84,1.06,.21,.8-.26,1.62-1.06,1.84l-12.29,3.29c-.13,.04-.26,.05-.39,.05Z"/><path class="cls-1" d="M43.8,61.13c-.66,0-1.27-.44-1.45-1.11-.21-.8,.26-1.62,1.06-1.84l12.14-3.25c.28-.08,.34-.28,.36-.39,.02-.14,0-.33-.22-.46-2.81-1.71-6.32-2.2-9.45-1.36l-8.81,2.36c-.8,.22-1.62-.26-1.84-1.06-.21-.8,.26-1.62,1.06-1.84l8.81-2.36c3.91-1.05,8.28-.45,11.79,1.69,1.2,.73,1.82,2.04,1.63,3.44-.19,1.39-1.15,2.49-2.51,2.87l-12.19,3.27c-.13,.04-.26,.05-.39,.05Z"/><path class="cls-1" d="M33.51,63.88c-.66,0-1.27-.44-1.45-1.11-.21-.8,.26-1.62,1.06-1.84l10.29-2.76c.8-.22,1.62,.26,1.84,1.06s-.26,1.62-1.06,1.84l-10.29,2.76c-.13,.04-.26,.05-.39,.05Z"/><path class="cls-1" d="M37.05,55.13c-.35,0-.71-.12-1-.38l-8.54-7.58c-.62-.55-.68-1.5-.12-2.12,.55-.62,1.5-.68,2.12-.13l8.54,7.58c.62,.55,.68,1.5,.12,2.12-.3,.33-.71,.5-1.12,.5Z"/><path class="cls-1" d="M28.86,57.32c-.47,0-.93-.22-1.22-.63l-5.89-8.29c-.48-.68-.32-1.61,.35-2.09,.67-.48,1.61-.32,2.09,.35l5.89,8.29c.48,.68,.32,1.61-.35,2.09-.26,.19-.57,.28-.87,.28Z"/><path class="cls-1" d="M22.97,49.03c-.47,0-.93-.22-1.22-.63l-2.1-2.95c-.54-.77-.68-1.75-.36-2.64,.32-.88,1.05-1.56,1.96-1.8,1.85-.5,3.81-.03,5.25,1.24l3.01,2.67c.62,.55,.68,1.5,.12,2.12-.55,.62-1.5,.68-2.12,.13l-3.01-2.67c-.63-.56-1.48-.79-2.3-.63l1.99,2.8c.48,.68,.32,1.61-.35,2.09-.26,.19-.57,.28-.87,.28Z"/><path class="cls-1" d="M17.49,68.17c-.51,0-1.01-.26-1.29-.73l-5.52-9.22c-.51-.85-.59-1.86-.21-2.78,.37-.92,1.13-1.59,2.09-1.84,1.32-.35,2.75,.22,3.47,1.39l2.02,3.29c.43,.71,.21,1.63-.5,2.06-.7,.43-1.63,.21-2.06-.5l-2.02-3.29s-.08-.07-.13-.05c-.02,0-.06,.02-.08,.07-.02,.06,0,.09,0,.11l5.52,9.22c.43,.71,.19,1.63-.52,2.06-.24,.14-.51,.21-.77,.21Z"/><path class="cls-1" d="M17.49,68.17c-.66,0-1.27-.44-1.45-1.11-.21-.8,.26-1.62,1.06-1.84l3.74-1c.8-.21,1.62,.26,1.84,1.06,.21,.8-.26,1.62-1.06,1.84l-3.74,1c-.13,.03-.26,.05-.39,.05Z"/></g></g><path class="cls-1" d="M25.52,52.05c-.88,0-1.69-.59-1.93-1.48-.29-1.07,.35-2.16,1.41-2.45l5.36-1.44c1.07-.29,2.16,.35,2.45,1.41,.29,1.07-.35,2.16-1.41,2.45l-5.36,1.44c-.17,.05-.35,.07-.52,.07Z"/><path class="cls-1" d="M42.76,64.92c-.22,0-.42-.15-.48-.37-.07-.27,.09-.54,.35-.61l16.33-4.38c.26-.07,.54,.09,.61,.35,.07,.27-.09,.54-.35,.61l-16.33,4.38s-.09,.02-.13,.02Z"/><path class="cls-1" d="M39.53,69.06c-.22,0-.42-.15-.48-.37-.07-.27,.09-.54,.35-.61l16.33-4.38c.26-.07,.54,.09,.61,.35,.07,.27-.09,.54-.35,.61l-16.33,4.38s-.09,.02-.13,.02Z"/></g><path class="cls-1" d="M62.82,77.78h-27.29c-4.19,0-7.59-3.41-7.59-7.59,0-.83,.67-1.5,1.5-1.5s1.5,.67,1.5,1.5c0,2.53,2.06,4.59,4.59,4.59h27.29c2.53,0,4.59-2.06,4.59-4.59V29.82c0-2.53-2.06-4.59-4.59-4.59h-27.29c-2.53,0-4.59,2.06-4.59,4.59v8.14c0,.83-.67,1.5-1.5,1.5s-1.5-.67-1.5-1.5v-8.14c0-4.19,3.41-7.59,7.59-7.59h27.29c4.19,0,7.59,3.41,7.59,7.59v40.37c0,4.19-3.41,7.59-7.59,7.59Z"/><path class="cls-1" d="M59.72,34.94h-21.1c-.83,0-1.5-.67-1.5-1.5s.67-1.5,1.5-1.5h21.1c.83,0,1.5,.67,1.5,1.5s-.67,1.5-1.5,1.5Z"/><path class="cls-3" d="M59.72,42.57h-21.1c-.83,0-1.5-.67-1.5-1.5s.67-1.5,1.5-1.5h21.1c.83,0,1.5,.67,1.5,1.5s-.67,1.5-1.5,1.5Z"/></g></svg>