<?xml version="1.0" encoding="UTF-8"?><svg id="Layer_2" xmlns="http://www.w3.org/2000/svg" viewBox="0 0 100 100"><defs><style>.cls-1{fill:#1e2525;}.cls-2{fill:red;opacity:0;}</style></defs><g id="Layer_1-2"><rect class="cls-2" width="100" height="100"/><g><path class="cls-1" d="M50,74.7c-.46,0-.92-.16-1.29-.48l-28.21-23.95c-.84-.71-.95-1.98-.23-2.82,.71-.84,1.98-.94,2.82-.23l26.92,22.85,26.92-22.85c.84-.71,2.11-.61,2.82,.23,.71,.84,.61,2.1-.23,2.82l-28.21,23.95c-.37,.32-.83,.48-1.29,.48Z"/><path class="cls-1" d="M50,41c-4.33,0-7.85-3.52-7.85-7.85s3.52-7.85,7.85-7.85,7.85,3.52,7.85,7.85-3.52,7.85-7.85,7.85Zm0-11.7c-2.12,0-3.85,1.73-3.85,3.85s1.73,3.85,3.85,3.85,3.85-1.73,3.85-3.85-1.73-3.85-3.85-3.85Z"/></g></g></svg>