<?xml version="1.0" encoding="UTF-8"?><svg id="Layer_2" xmlns="http://www.w3.org/2000/svg" viewBox="0 0 100 100"><defs><style>.cls-1{fill:#1e2525;}.cls-2{fill:red;opacity:0;}</style></defs><g id="Layer_1-2"><rect class="cls-2" width="100" height="100"/><g><path class="cls-1" d="M29.21,72.79c-.51,0-1.02-.2-1.41-.59-.78-.78-.78-2.05,0-2.83L69.37,27.8c.78-.78,2.05-.78,2.83,0,.78,.78,.78,2.05,0,2.83L30.63,72.2c-.39,.39-.9,.59-1.41,.59Z"/><path class="cls-1" d="M70.79,72.79c-.51,0-1.02-.2-1.41-.59L27.8,30.63c-.78-.78-.78-2.05,0-2.83,.78-.78,2.05-.78,2.83,0l41.57,41.57c.78,.78,.78,2.05,0,2.83-.39,.39-.9,.59-1.41,.59Z"/></g></g></svg>