<?xml version="1.0" encoding="UTF-8"?><svg id="Layer_2" xmlns="http://www.w3.org/2000/svg" viewBox="0 0 100 100"><defs><style>.cls-1{fill:#1e2525;}.cls-2{fill:red;opacity:0;}</style></defs><g id="Layer_1-2"><rect class="cls-2" width="100" height="100"/><g><path class="cls-1" d="M45.12,72.79c-.51,0-1.02-.2-1.41-.59l-20.79-20.79c-.78-.78-.78-2.05,0-2.83l20.79-20.79c.78-.78,2.05-.78,2.83,0,.78,.78,.78,2.05,0,2.83l-19.37,19.37,19.37,19.37c.78,.78,.78,2.05,0,2.83-.39,.39-.9,.59-1.41,.59Z"/><path class="cls-1" d="M75.67,52H24.33c-1.1,0-2-.9-2-2s.9-2,2-2h51.34c1.1,0,2,.9,2,2s-.9,2-2,2Z"/></g></g></svg>