<?xml version="1.0" encoding="UTF-8"?><svg id="Layer_2" xmlns="http://www.w3.org/2000/svg" viewBox="0 0 100 100"><defs><style>.cls-1{fill:#1e2525;}.cls-2{fill:red;opacity:0;}.cls-3{fill:#eb283a;}</style></defs><g id="Layer_1-2"><rect class="cls-2" width="100" height="100"/><g><path class="cls-1" d="M66.57,41.57h-13.27c-.83,0-1.5-.67-1.5-1.5s.67-1.5,1.5-1.5h13.27c.83,0,1.5,.67,1.5,1.5s-.67,1.5-1.5,1.5Z"/><g><path class="cls-1" d="M46.7,41.57h-13.27c-.83,0-1.5-.67-1.5-1.5s.67-1.5,1.5-1.5h13.27c.83,0,1.5,.67,1.5,1.5s-.67,1.5-1.5,1.5Z"/><path class="cls-1" d="M40.07,48.2c-.83,0-1.5-.67-1.5-1.5v-13.27c0-.83,.67-1.5,1.5-1.5s1.5,.67,1.5,1.5v13.27c0,.83-.67,1.5-1.5,1.5Z"/></g><g><path class="cls-1" d="M66.57,61.43h-13.27c-.83,0-1.5-.67-1.5-1.5s.67-1.5,1.5-1.5h13.27c.83,0,1.5,.67,1.5,1.5s-.67,1.5-1.5,1.5Z"/><g><circle class="cls-3" cx="59.93" cy="65.44" r="1.13"/><path class="cls-3" d="M59.93,68.07c-1.45,0-2.63-1.18-2.63-2.63s1.18-2.63,2.63-2.63,2.63,1.18,2.63,2.63-1.18,2.63-2.63,2.63Zm0-3c-.21,0-.37,.17-.37,.37s.17,.37,.37,.37,.37-.17,.37-.37-.17-.37-.37-.37Z"/></g><g><circle class="cls-3" cx="59.93" cy="54.42" r="1.13"/><path class="cls-3" d="M59.93,57.05c-1.45,0-2.63-1.18-2.63-2.63s1.18-2.63,2.63-2.63,2.63,1.18,2.63,2.63-1.18,2.63-2.63,2.63Zm0-3c-.21,0-.37,.17-.37,.37s.17,.37,.37,.37,.37-.17,.37-.37-.17-.37-.37-.37Z"/></g></g><g><path class="cls-1" d="M34.27,67.23c-.38,0-.77-.15-1.06-.44-.59-.59-.59-1.54,0-2.12l11.56-11.56c.59-.59,1.54-.59,2.12,0,.59,.59,.59,1.54,0,2.12l-11.56,11.56c-.29,.29-.68,.44-1.06,.44Z"/><path class="cls-1" d="M45.84,67.23c-.38,0-.77-.15-1.06-.44l-11.56-11.56c-.59-.59-.59-1.54,0-2.12,.59-.59,1.54-.59,2.12,0l11.56,11.56c.59,.59,.59,1.54,0,2.12-.29,.29-.68,.44-1.06,.44Z"/></g></g><path class="cls-1" d="M65.89,77.24h-31.79c-6.26,0-11.35-5.09-11.35-11.35v-31.79c0-6.26,5.09-11.35,11.35-11.35h31.79c6.26,0,11.35,5.09,11.35,11.35v31.79c0,6.26-5.09,11.35-11.35,11.35ZM34.11,25.76c-4.61,0-8.35,3.75-8.35,8.35v31.79c0,4.6,3.75,8.35,8.35,8.35h31.79c4.6,0,8.35-3.75,8.35-8.35v-31.79c0-4.6-3.75-8.35-8.35-8.35h-31.79Z"/><path class="cls-1" d="M19.26,39.2c-.28,0-.5-.22-.5-.5v-5.08c0-8.19,6.67-14.86,14.86-14.86h3.32c.28,0,.5,.22,.5,.5s-.22,.5-.5,.5h-3.32c-7.64,0-13.86,6.22-13.86,13.86v5.08c0,.28-.22,.5-.5,.5Z"/></g></svg>