<?xml version="1.0" encoding="UTF-8"?><svg id="Layer_2" xmlns="http://www.w3.org/2000/svg" viewBox="0 0 100 100"><defs><style>.cls-1{fill:red;opacity:0;}.cls-2{fill:#959b9b;}</style></defs><g id="Layer_1-2"><rect class="cls-1" width="100" height="100"/><path class="cls-2" d="M38.73,78.85h-.02c-4.25,0-8.23-1.66-11.23-4.67-6.16-6.19-6.15-16.25,.02-22.42l27.32-27.32c3.37-3.37,8.51-4.24,12.8-2.18,3.33,1.6,5.59,4.6,6.21,8.24s-.52,7.22-3.13,9.83l-26.82,26.81c-1.52,1.52-3.69,2.21-5.82,1.84-2.44-.43-4.42-2.16-5.17-4.52-.75-2.36-.12-4.92,1.63-6.67l25.03-25.02c.78-.78,2.05-.78,2.83,0,.78,.78,.78,2.05,0,2.83l-25.03,25.02c-.7,.7-.94,1.69-.64,2.64s1.06,1.62,2.04,1.79c.84,.15,1.7-.12,2.3-.73l26.82-26.81c1.68-1.68,2.41-3.99,2.01-6.33-.4-2.34-1.86-4.28-4-5.3-2.76-1.33-6.08-.76-8.24,1.4l-27.32,27.32c-4.62,4.62-4.63,12.14-.02,16.77,2.24,2.25,5.22,3.49,8.4,3.5h.01c3.17,0,6.15-1.23,8.39-3.48l26.6-26.6c.78-.78,2.05-.78,2.83,0,.78,.78,.78,2.05,0,2.83l-26.6,26.6c-3,3-6.98,4.65-11.22,4.65Z"/></g></svg>