<?xml version="1.0" encoding="UTF-8"?><svg id="Layer_2" xmlns="http://www.w3.org/2000/svg" viewBox="0 0 111.18 36.79"><defs><style>.cls-1{fill:#fff;}</style></defs><g id="Layer_1-2"><path class="cls-1" d="M19.11,22.8H6.01v-1.77h12.36v-2.56H6.01v-1.71h12.87v-2.66H2.66v11.36H19.11v-2.66Zm2.23,4.35H0v2.74H8.96v6.88h3.38v-6.88h9.01v-2.74Z"/><path class="cls-1" d="M28.73,28.58c-1.71,0-2.87-1.87-2.87-5.37s1.15-5.35,2.87-5.35,2.89,1.87,2.89,5.35-1.15,5.37-2.89,5.37Zm9.95-15.43v8.49h-3.94c-.46-4.25-2.84-6.83-6.01-6.83-3.51,0-6.09,3.22-6.09,8.39s2.58,8.44,6.09,8.44c3.28,0,5.68-2.76,6.04-7.27h3.91v12.41h3.38V13.15h-3.38Z"/><path class="cls-1" d="M64.63,13.17h-3.2v13.02h3.2V13.17Zm-9.57,5.73v2.64h1.92v4.53h3.12V13.56h-3.12v5.35h-1.92Zm.49-3.86h-3.91v-1.89h-3.3v1.89h-3.91v2.51h11.13v-2.51Zm-7.5,6.93c0-1.02,.79-1.56,1.97-1.56s1.97,.54,1.97,1.56-.82,1.59-1.97,1.59-1.97-.54-1.97-1.59Zm6.86,0c0-2.3-2.05-3.89-4.89-3.89s-4.91,1.59-4.91,3.89,2.05,3.91,4.91,3.91,4.89-1.59,4.89-3.91Zm-2.92,12.15v-1.28h12.64v-5.83h-16.02v2.43h12.69v1.15h-12.64v5.96h16.61v-2.43h-13.28Z"/><path class="cls-1" d="M72.56,17.93h2.33v10.57c-.79,.05-1.56,.08-2.33,.1v-10.67Zm5.58,0h2.2v-2.69h-13v2.69h1.94v10.75h-2.58l.36,2.74c4.02,0,9.36-.1,14.07-.92l-.2-2.46c-.9,.1-1.84,.2-2.79,.26v-10.36Zm5.07-4.76v8.55h-3.51v2.74h3.51v12.31h3.38V13.17h-3.38Z"/><path class="cls-1" d="M110.4,0l-17.48,10.09-7.62-6.48L110.4,0Z"/><path class="cls-1" d="M111.18,1.36l-17.48,10.09,1.8,9.84L111.18,1.36Z"/></g></svg>