<svg width="18" height="16" viewBox="0 0 18 16" fill="none" xmlns="http://www.w3.org/2000/svg">
<path d="M8.57143 0C3.83829 0 0 3.06308 0 6.84342C0 9.26894 1.58914 11.4034 3.97714 12.6196L3.16971 15.6654C3.15482 15.7105 3.15271 15.7588 3.16362 15.8051C3.17452 15.8513 3.19801 15.8935 3.23143 15.927C3.2733 15.9708 3.33015 15.9968 3.39037 15.9997C3.45058 16.0026 3.50962 15.9822 3.55543 15.9426L7.02857 13.5708C7.53948 13.6464 8.05507 13.6851 8.57143 13.6868C13.3046 13.6868 17.1429 10.6238 17.1429 6.84515C17.1429 3.06655 13.3046 0 8.57143 0Z" fill="#3C1E1E"/>
</svg>
