<svg width="112" height="37" viewBox="0 0 112 37" fill="none" xmlns="http://www.w3.org/2000/svg">
<path d="M19.5309 22.7955H6.43025V21.03H18.7889V18.4713H6.43025V16.7569H19.3007V14.0958H3.07831V25.4566H19.5309V22.7955ZM21.757 27.1454H0.417236V29.8832H9.37279V36.7662H12.7503V29.8832H21.757V27.1454Z" fill="#EB283A"/>
<path d="M29.1498 28.5782C27.4354 28.5782 26.284 26.7104 26.284 23.2049C26.284 19.725 27.4354 17.8572 29.1498 17.8572C30.8897 17.8572 32.0411 19.725 32.0411 23.2049C32.0411 26.7104 30.8897 28.5782 29.1498 28.5782ZM39.1032 13.1491V21.6441H35.1628C34.7022 17.3966 32.3226 14.8123 29.1498 14.8123C25.6443 14.8123 23.06 18.0363 23.06 23.2049C23.06 28.3991 25.6443 31.6487 29.1498 31.6487C32.4249 31.6487 34.8301 28.8853 35.1884 24.3819H39.1032V36.7918H42.4807V13.1491H39.1032Z" fill="#EB283A"/>
<path d="M65.0467 13.1747H61.8483V26.1986H65.0467V13.1747ZM55.4771 18.9062V21.5417H57.3961V26.0707H60.5178V13.5585H57.3961V18.9062H55.4771ZM55.9632 15.0426H52.0484V13.1491H48.7476V15.0426H44.8328V17.5501H55.9632V15.0426ZM48.4662 21.9767C48.4662 20.9532 49.2594 20.4159 50.4364 20.4159C51.5878 20.4159 52.4066 20.9532 52.4066 21.9767C52.4066 23.0258 51.5878 23.5631 50.4364 23.5631C49.2594 23.5631 48.4662 23.0258 48.4662 21.9767ZM55.3236 21.9767C55.3236 19.6739 53.2766 18.0875 50.4364 18.0875C47.5706 18.0875 45.5236 19.6739 45.5236 21.9767C45.5236 24.3052 47.5706 25.8916 50.4364 25.8916C53.2766 25.8916 55.3236 24.3052 55.3236 21.9767ZM52.4066 34.1307V32.8513H65.0467V27.0174H49.0291V29.4482H61.7204V30.5996H49.0803V36.5615H65.6864V34.1307H52.4066Z" fill="#2B3535"/>
<path d="M72.9768 17.9339H75.3052V28.5015C74.512 28.5527 73.7444 28.5782 72.9768 28.6038V17.9339ZM78.5548 17.9339H80.7553V15.2473H67.757V17.9339H69.7016V28.6806C68.8061 28.6806 67.9361 28.6806 67.1173 28.6806L67.4755 31.4184C71.4927 31.4184 76.8405 31.3161 81.5485 30.4973L81.3438 28.0409C80.4483 28.1433 79.5016 28.2456 78.5548 28.2968V17.9339ZM83.6211 13.1747V21.7208H80.1156V24.4587H83.6211V36.7662H86.9986V13.1747H83.6211Z" fill="#2B3535"/>
<path d="M110.815 0L93.3354 10.0919L85.7126 3.61673L110.815 0Z" fill="#EB283A"/>
<path d="M111.6 1.35968L94.1202 11.4515L95.9165 21.2906L111.6 1.35968Z" fill="#EB283A"/>
</svg>
