<?xml version="1.0" encoding="UTF-8"?><svg id="Layer_2" xmlns="http://www.w3.org/2000/svg" viewBox="0 0 334.1 130.65"><defs><style>.cls-1{fill:#eb283a;}.cls-2{fill:#2b3535;}</style></defs><g id="Layer_1-2"><path class="cls-1" d="M303.73,130.65h-6.11c-.28,0-.5-.22-.5-.5s.22-.5,.5-.5h6.11c.28,0,.5,.22,.5,.5s-.22,.5-.5,.5Zm-12.1,0h-5.99c-.28,0-.5-.22-.5-.5s.22-.5,.5-.5h5.99c.28,0,.5,.22,.5,.5s-.22,.5-.5,.5Zm-11.97,0h-5.99c-.28,0-.5-.22-.5-.5s.22-.5,.5-.5h5.99c.28,0,.5,.22,.5,.5s-.22,.5-.5,.5Zm-11.97,0h-5.99c-.28,0-.5-.22-.5-.5s.22-.5,.5-.5h5.99c.28,0,.5,.22,.5,.5s-.22,.5-.5,.5Zm-11.97,0h-5.99c-.28,0-.5-.22-.5-.5s.22-.5,.5-.5h5.99c.28,0,.5,.22,.5,.5s-.22,.5-.5,.5Zm-11.97,0h-5.99c-.28,0-.5-.22-.5-.5s.22-.5,.5-.5h5.99c.28,0,.5,.22,.5,.5s-.22,.5-.5,.5Zm-11.97,0h-5.99c-.28,0-.5-.22-.5-.5s.22-.5,.5-.5h5.99c.28,0,.5,.22,.5,.5s-.22,.5-.5,.5Zm-11.97,0h-5.99c-.28,0-.5-.22-.5-.5s.22-.5,.5-.5h5.99c.28,0,.5,.22,.5,.5s-.22,.5-.5,.5Zm-11.97,0h-5.99c-.28,0-.5-.22-.5-.5s.22-.5,.5-.5h5.99c.28,0,.5,.22,.5,.5s-.22,.5-.5,.5Zm-11.97,0h-5.99c-.28,0-.5-.22-.5-.5s.22-.5,.5-.5h5.99c.28,0,.5,.22,.5,.5s-.22,.5-.5,.5Zm-11.97,0h-5.99c-.28,0-.5-.22-.5-.5s.22-.5,.5-.5h5.99c.28,0,.5,.22,.5,.5s-.22,.5-.5,.5Zm-11.97,0h-5.99c-.28,0-.5-.22-.5-.5s.22-.5,.5-.5h5.99c.28,0,.5,.22,.5,.5s-.22,.5-.5,.5Zm-11.97,0h-5.99c-.28,0-.5-.22-.5-.5s.22-.5,.5-.5h5.99c.28,0,.5,.22,.5,.5s-.22,.5-.5,.5Zm-11.97,0h-5.99c-.28,0-.5-.22-.5-.5s.22-.5,.5-.5h5.99c.28,0,.5,.22,.5,.5s-.22,.5-.5,.5Zm-11.97,0h-5.99c-.28,0-.5-.22-.5-.5s.22-.5,.5-.5h5.99c.28,0,.5,.22,.5,.5s-.22,.5-.5,.5Zm-11.97,0h-5.99c-.28,0-.5-.22-.5-.5s.22-.5,.5-.5h5.99c.28,0,.5,.22,.5,.5s-.22,.5-.5,.5Zm-11.97,0h-5.99c-.28,0-.5-.22-.5-.5s.22-.5,.5-.5h5.99c.28,0,.5,.22,.5,.5s-.22,.5-.5,.5Zm-11.97,0h-5.99c-.28,0-.5-.22-.5-.5s.22-.5,.5-.5h5.99c.28,0,.5,.22,.5,.5s-.22,.5-.5,.5Zm-11.97,0h-5.99c-.28,0-.5-.22-.5-.5s.22-.5,.5-.5h5.99c.28,0,.5,.22,.5,.5s-.22,.5-.5,.5Zm-11.97,0h-5.99c-.28,0-.5-.22-.5-.5s.22-.5,.5-.5h5.99c.28,0,.5,.22,.5,.5s-.22,.5-.5,.5Zm-11.97,0h-5.99c-.28,0-.5-.22-.5-.5s.22-.5,.5-.5h5.99c.28,0,.5,.22,.5,.5s-.22,.5-.5,.5Zm-11.97,0h-5.99c-.28,0-.5-.22-.5-.5s.22-.5,.5-.5h5.99c.28,0,.5,.22,.5,.5s-.22,.5-.5,.5Zm-11.97,0h-5.99c-.28,0-.5-.22-.5-.5s.22-.5,.5-.5h5.99c.28,0,.5,.22,.5,.5s-.22,.5-.5,.5Zm-11.97-.08s-.02,0-.04,0c-2.03-.15-4.04-.5-5.98-1.05-.27-.08-.42-.35-.35-.62,.08-.26,.35-.42,.62-.35,1.88,.53,3.83,.87,5.79,1.02,.28,.02,.48,.26,.46,.54-.02,.26-.24,.46-.5,.46Zm281.42-.53c-.23,0-.44-.16-.49-.4-.05-.27,.12-.54,.39-.59,1.92-.39,3.8-.98,5.61-1.75,.25-.11,.55,0,.66,.26,.11,.25,0,.55-.26,.66-1.86,.8-3.82,1.41-5.8,1.81-.03,0-.07,0-.1,0Zm-292.87-2.69c-.08,0-.15-.02-.23-.06-1.8-.92-3.52-2.04-5.1-3.3-.22-.17-.25-.49-.08-.7,.17-.21,.49-.25,.7-.08,1.53,1.22,3.19,2.3,4.93,3.19,.25,.13,.34,.43,.22,.67-.09,.17-.26,.27-.45,.27Zm303.8-1.98c-.16,0-.31-.08-.41-.22-.16-.23-.1-.54,.13-.7,1.61-1.11,3.12-2.39,4.48-3.8,.19-.2,.51-.2,.71-.01,.2,.19,.2,.51,.01,.71-1.41,1.46-2.97,2.78-4.63,3.93-.09,.06-.18,.09-.28,.09ZM7.51,119.93c-.14,0-.28-.06-.38-.18-1.3-1.55-2.46-3.24-3.42-5.02-.13-.24-.04-.55,.2-.68,.24-.13,.55-.04,.68,.2,.94,1.72,2.05,3.35,3.31,4.85,.18,.21,.15,.53-.06,.7-.09,.08-.21,.12-.32,.12Zm321.36-3.1c-.09,0-.19-.03-.27-.08-.23-.15-.3-.46-.15-.69,1.06-1.65,1.96-3.42,2.66-5.24,.1-.26,.39-.39,.65-.29,.26,.1,.39,.39,.29,.65-.73,1.89-1.66,3.71-2.75,5.42-.1,.15-.26,.23-.42,.23ZM1.82,109.49c-.21,0-.41-.14-.48-.35-.59-1.93-1-3.94-1.2-5.96-.03-.27,.17-.52,.45-.55,.28-.01,.52,.17,.55,.45,.19,1.95,.58,3.89,1.16,5.76,.08,.26-.07,.54-.33,.62-.05,.02-.1,.02-.15,.02Zm331.35-3.75s-.06,0-.08,0c-.27-.05-.46-.3-.41-.58,.28-1.64,.42-3.33,.42-5v-.87c0-.28,.22-.5,.5-.5s.5,.22,.5,.5v.87c0,1.73-.15,3.47-.44,5.17-.04,.24-.25,.42-.49,.42ZM.5,97.65c-.28,0-.5-.22-.5-.5v-5.99c0-.28,.22-.5,.5-.5s.5,.22,.5,.5v5.99c0,.28-.22,.5-.5,.5Zm333.1-3.86c-.28,0-.5-.22-.5-.5v-5.99c0-.28,.22-.5,.5-.5s.5,.22,.5,.5v5.99c0,.28-.22,.5-.5,.5ZM.5,85.68c-.28,0-.5-.22-.5-.5v-5.99c0-.28,.22-.5,.5-.5s.5,.22,.5,.5v5.99c0,.28-.22,.5-.5,.5Zm333.1-3.86c-.28,0-.5-.22-.5-.5v-5.99c0-.28,.22-.5,.5-.5s.5,.22,.5,.5v5.99c0,.28-.22,.5-.5,.5ZM.5,73.71c-.28,0-.5-.22-.5-.5v-5.99c0-.28,.22-.5,.5-.5s.5,.22,.5,.5v5.99c0,.28-.22,.5-.5,.5Zm333.1-3.86c-.28,0-.5-.22-.5-.5v-5.99c0-.28,.22-.5,.5-.5s.5,.22,.5,.5v5.99c0,.28-.22,.5-.5,.5ZM.5,61.74c-.28,0-.5-.22-.5-.5v-5.99c0-.28,.22-.5,.5-.5s.5,.22,.5,.5v5.99c0,.28-.22,.5-.5,.5Zm333.1-3.86c-.28,0-.5-.22-.5-.5v-5.99c0-.28,.22-.5,.5-.5s.5,.22,.5,.5v5.99c0,.28-.22,.5-.5,.5ZM.5,49.77c-.28,0-.5-.22-.5-.5v-5.99c0-.28,.22-.5,.5-.5s.5,.22,.5,.5v5.99c0,.28-.22,.5-.5,.5Zm333.1-3.86c-.28,0-.5-.22-.5-.5v-5.99c0-.28,.22-.5,.5-.5s.5,.22,.5,.5v5.99c0,.28-.22,.5-.5,.5ZM.5,37.79c-.28,0-.5-.22-.5-.5v-5.99c0-.28,.22-.5,.5-.5s.5,.22,.5,.5v5.99c0,.28-.22,.5-.5,.5Zm333.1-3.86c-.28,0-.5-.22-.5-.5v-2.94c0-1-.05-2-.15-2.99-.03-.27,.17-.52,.45-.55,.27-.03,.52,.17,.55,.45,.1,1.02,.16,2.06,.16,3.09v2.94c0,.28-.22,.5-.5,.5ZM.94,25.85s-.06,0-.09,0c-.27-.05-.45-.31-.41-.58,.35-2,.89-3.97,1.63-5.85,.1-.26,.39-.38,.65-.28,.26,.1,.38,.39,.28,.65-.71,1.82-1.24,3.73-1.58,5.66-.04,.24-.25,.41-.49,.41Zm331.32-3.75c-.21,0-.41-.14-.48-.35-.58-1.87-1.35-3.69-2.29-5.41-.13-.24-.04-.55,.2-.68,.24-.13,.55-.04,.68,.2,.97,1.78,1.77,3.66,2.37,5.59,.08,.26-.07,.54-.33,.63-.05,.02-.1,.02-.15,.02ZM5.26,14.77c-.09,0-.19-.03-.27-.08-.23-.15-.3-.46-.15-.69,1.1-1.7,2.37-3.3,3.78-4.75,.19-.2,.51-.2,.71-.01s.2,.51,.01,.71c-1.37,1.41-2.6,2.96-3.66,4.6-.1,.15-.26,.23-.42,.23Zm321.29-3.1c-.14,0-.28-.06-.38-.18-1.26-1.5-2.68-2.88-4.21-4.1-.22-.17-.25-.49-.08-.7,.17-.22,.49-.25,.7-.08,1.58,1.26,3.05,2.68,4.36,4.23,.18,.21,.15,.53-.06,.7-.09,.08-.21,.12-.32,.12ZM13.55,6.24c-.16,0-.32-.08-.41-.22-.16-.23-.1-.54,.13-.69,1.67-1.15,3.46-2.13,5.33-2.92,.25-.11,.55,.01,.66,.27,.11,.25-.01,.55-.27,.66-1.8,.76-3.53,1.71-5.15,2.82-.09,.06-.19,.09-.28,.09Zm303.69-1.97c-.08,0-.15-.02-.23-.05-1.75-.89-3.59-1.61-5.47-2.14-.27-.07-.42-.35-.35-.62,.07-.27,.35-.42,.62-.35,1.95,.54,3.85,1.29,5.66,2.21,.25,.13,.34,.43,.22,.67-.09,.17-.26,.27-.45,.27ZM24.49,1.6c-.23,0-.44-.16-.49-.4-.06-.27,.12-.53,.39-.59C26.37,.21,28.4,0,30.44,0h0c.28,0,.5,.22,.5,.5,0,.28-.22,.5-.5,.5-1.97,0-3.93,.2-5.85,.59-.03,0-.07,.01-.1,.01Zm281.3-.52s-.02,0-.04,0c-.71-.05-1.43-.08-2.15-.08h-3.79c-.28,0-.5-.22-.5-.5s.22-.5,.5-.5h3.79c.74,0,1.49,.03,2.22,.08,.28,.02,.48,.26,.46,.53-.02,.26-.24,.46-.5,.46Zm-11.97-.08h-5.99c-.28,0-.5-.22-.5-.5s.22-.5,.5-.5h5.99c.28,0,.5,.22,.5,.5s-.22,.5-.5,.5Zm-11.97,0h-5.99c-.28,0-.5-.22-.5-.5s.22-.5,.5-.5h5.99c.28,0,.5,.22,.5,.5s-.22,.5-.5,.5Zm-11.97,0h-5.99c-.28,0-.5-.22-.5-.5s.22-.5,.5-.5h5.99c.28,0,.5,.22,.5,.5s-.22,.5-.5,.5Zm-11.97,0h-5.99c-.28,0-.5-.22-.5-.5s.22-.5,.5-.5h5.99c.28,0,.5,.22,.5,.5s-.22,.5-.5,.5Zm-11.97,0h-5.99c-.28,0-.5-.22-.5-.5s.22-.5,.5-.5h5.99c.28,0,.5,.22,.5,.5s-.22,.5-.5,.5Zm-11.97,0h-5.99c-.28,0-.5-.22-.5-.5s.22-.5,.5-.5h5.99c.28,0,.5,.22,.5,.5s-.22,.5-.5,.5Zm-11.97,0h-5.99c-.28,0-.5-.22-.5-.5s.22-.5,.5-.5h5.99c.28,0,.5,.22,.5,.5s-.22,.5-.5,.5Zm-11.97,0h-5.99c-.28,0-.5-.22-.5-.5s.22-.5,.5-.5h5.99c.28,0,.5,.22,.5,.5s-.22,.5-.5,.5Zm-11.97,0h-5.99c-.28,0-.5-.22-.5-.5s.22-.5,.5-.5h5.99c.28,0,.5,.22,.5,.5s-.22,.5-.5,.5Zm-11.97,0h-5.99c-.28,0-.5-.22-.5-.5s.22-.5,.5-.5h5.99c.28,0,.5,.22,.5,.5s-.22,.5-.5,.5Zm-11.97,0h-5.99c-.28,0-.5-.22-.5-.5s.22-.5,.5-.5h5.99c.28,0,.5,.22,.5,.5s-.22,.5-.5,.5Zm-11.97,0h-5.99c-.28,0-.5-.22-.5-.5s.22-.5,.5-.5h5.99c.28,0,.5,.22,.5,.5s-.22,.5-.5,.5Zm-11.97,0h-5.99c-.28,0-.5-.22-.5-.5s.22-.5,.5-.5h5.99c.28,0,.5,.22,.5,.5s-.22,.5-.5,.5Zm-11.97,0h-5.99c-.28,0-.5-.22-.5-.5s.22-.5,.5-.5h5.99c.28,0,.5,.22,.5,.5s-.22,.5-.5,.5Zm-11.97,0h-5.99c-.28,0-.5-.22-.5-.5s.22-.5,.5-.5h5.99c.28,0,.5,.22,.5,.5s-.22,.5-.5,.5Zm-11.97,0h-5.99c-.28,0-.5-.22-.5-.5s.22-.5,.5-.5h5.99c.28,0,.5,.22,.5,.5s-.22,.5-.5,.5Zm-11.97,0h-5.99c-.28,0-.5-.22-.5-.5s.22-.5,.5-.5h5.99c.28,0,.5,.22,.5,.5s-.22,.5-.5,.5Zm-11.97,0h-5.99c-.28,0-.5-.22-.5-.5s.22-.5,.5-.5h5.99c.28,0,.5,.22,.5,.5s-.22,.5-.5,.5Zm-11.97,0h-5.99c-.28,0-.5-.22-.5-.5s.22-.5,.5-.5h5.99c.28,0,.5,.22,.5,.5s-.22,.5-.5,.5Zm-11.97,0h-5.99c-.28,0-.5-.22-.5-.5s.22-.5,.5-.5h5.99c.28,0,.5,.22,.5,.5s-.22,.5-.5,.5Zm-11.97,0h-5.99c-.28,0-.5-.22-.5-.5s.22-.5,.5-.5h5.99c.28,0,.5,.22,.5,.5s-.22,.5-.5,.5Zm-11.97,0h-5.99c-.28,0-.5-.22-.5-.5s.22-.5,.5-.5h5.99c.28,0,.5,.22,.5,.5s-.22,.5-.5,.5Z"/><g><g><path class="cls-2" d="M108.92,57.85c.63-.07,1.27-.14,1.88-.23l.27,2.56c-2.43,.38-5.46,.59-8.23,.59h-2.47l-.14-2.65h1.66v-11.07h-1.5v-2.65h9.95v2.65h-1.43v10.79Zm-2.56-10.79h-1.95v11.04c.63,0,1.27-.02,1.95-.07v-10.97Zm5.67,3.76v-7.53h2.72v20.34h-2.72v-10.16h-2.2v-2.65h2.2Zm4.4-7.87h2.81v21.18h-2.81v-21.18Z"/><path class="cls-2" d="M122.71,54.26v-3.24c0-5.17,2.61-7.17,5.78-7.17s5.76,2,5.76,7.17v3.24c0,5.17-2.61,7.17-5.76,7.17s-5.78-2-5.78-7.17Zm8.64,0v-3.24c0-3.4-1.29-4.53-2.86-4.53s-2.88,1.13-2.88,4.53v3.24c0,3.4,1.32,4.53,2.88,4.53s2.86-1.13,2.86-4.53Zm6.12,9.86v-21.18h2.9v21.18h-2.9Z"/><path class="cls-2" d="M151.83,47.73c0,1.52-.18,2.95-.54,4.33l5.96,7.12-2.13,1.91-4.97-5.94c-1.02,2.15-2.52,4.17-4.47,6.14l-2.04-1.93c3.58-3.63,5.35-7.1,5.35-11.63v-.57h-4.51v-2.65h11.93v2.65h-4.58v.57Zm7.14-4.78h2.9v21.18h-2.9v-21.18Z"/><path class="cls-1" d="M170.63,53.65h19.95v2.63h-8.53v3.33h-2.9v-3.33h-8.53v-2.63Zm1.54-3.67c4.54-1.16,6.69-2.63,7.12-4.13h-6.01v-2.5h14.67v2.5h-5.83c-.04,.52-.18,1.04-.41,1.52l7.32,2.61-1.02,2.38-7.98-2.9c-1.5,1.18-3.79,2.15-7.07,2.9l-.79-2.38Zm3.79,8.03v3.42h12.65v2.7h-15.55v-6.12h2.9Z"/><path class="cls-1" d="M201.05,49.8v-5.62h2.86v16.6h-10.84v-16.6h2.86v5.62h5.12Zm-5.12,8.37h5.12v-5.76h-5.12v5.76Zm11.68-15.21h2.9v21.18h-2.9v-21.18Z"/><path class="cls-1" d="M233.59,54.76h-8.53v1.75h1.07c3.4,0,5.37,1.68,5.37,3.92s-1.97,3.92-5.37,3.92h-5.03c-3.38,0-5.35-1.66-5.35-3.92s1.97-3.92,5.35-3.92h1.07v-1.75h-8.53v-2.47h19.95v2.47Zm-18.39-5.55c4.33-.86,6.48-2.09,7.05-3.38h-5.96v-2.47h14.67v2.47h-5.8c-.07,.43-.18,.84-.36,1.22l7.23,2.13-.91,2.4-8.14-2.47c-1.5,1.04-3.81,1.86-7.05,2.47l-.73-2.38Zm10.41,9.79h-3.97c-2.11,0-3.02,.52-3.02,1.41s.91,1.45,3.02,1.45h3.97c2.11,0,2.99-.57,2.99-1.45s-.88-1.41-2.99-1.41Z"/></g><g><path class="cls-2" d="M37.67,83.86c1.33,0,3.07-.16,4.47-.37l.1,.77c-1.31,.23-3.11,.38-4.71,.38h-1.73v-8.33h5.29v.79h-4.44v6.76h1.02Zm5.85-8.44h.85v11.07h-.85v-5.95h-3.43v-.79h3.43v-4.33Z"/><path class="cls-2" d="M51.47,83.86c1.31,0,3.05-.16,4.46-.37l.1,.76c-1.33,.23-3.11,.4-4.71,.4h-1.68v-8.33h.86v7.56h.97Zm8.42-4.11v.79h-1.83v5.95h-.86v-11.07h.86v4.33h1.83Z"/><path class="cls-2" d="M60.69,82.22v-.79h10.36v.79h-10.36Zm4.41-2.15c-1.92,0-3.13-.83-3.13-2.25s1.21-2.24,3.13-2.24h1.54c1.93,0,3.14,.83,3.14,2.24s-1.21,2.25-3.14,2.25h-1.54Zm-2.96,6.42v-3.21h.85v2.42h6.91v.79h-7.76Zm4.37-7.17c1.55,0,2.41-.59,2.41-1.49s-.86-1.49-2.41-1.49h-1.26c-1.56,0-2.42,.56-2.42,1.49s.86,1.49,2.42,1.49h1.26Z"/><path class="cls-2" d="M78.89,77.48c0,.96-.12,1.87-.36,2.73l3.44,4.05-.64,.56-3.12-3.68c-.54,1.34-1.42,2.59-2.64,3.8l-.6-.59c2.04-2,3.07-4.09,3.07-6.88v-1.38h.84v1.38Zm4.57-2.06h.86v11.07h-.86v-6.3h-2.84v-.79h2.84v-3.98Z"/><path class="cls-2" d="M91.4,79.47v-3.29h.85v8.48h-5.29v-8.48h.84v3.29h3.6Zm-3.6,4.4h3.6v-3.62h-3.6v3.62Zm7.06-8.46h.85v11.07h-.85v-11.07Z"/><path class="cls-2" d="M97.73,84.81h10.36v.78h-10.36v-.78Zm4.95-5.54c-.72,1.08-1.99,2.09-3.93,3.01l-.4-.73c2.84-1.38,4.19-2.85,4.19-4.61v-.89h.85v.89c0,.55-.11,1.08-.32,1.59l4.4,3.05-.48,.7-4.31-3.01Z"/><path class="cls-2" d="M109.11,81.39v-.7h10.36v.7h-10.36Zm1.34,5.16v-2.5h6.82v-1.05h-6.88v-.7h7.75v2.45h-6.84v1.09h7.14v.71h-7.99Zm.11-6.75v-2.41h6.61v-1.06h-6.67v-.7h7.53v2.42h-6.62v1.07h6.85v.67h-7.7Z"/><path class="cls-2" d="M126.45,77.88c0,.88-.08,1.7-.26,2.48l2.65,3.97-.68,.49-2.27-3.39c-.42,1.21-1.07,2.36-1.94,3.53l-.66-.53c1.51-1.98,2.35-3.89,2.35-6.55v-.73h-1.97v-.78h4.79v.78h-2v.73Zm3.21,1.76v-4.04h.83v10.69h-.83v-5.87h-1.95v-.78h1.95Zm2.39-4.22h.84v11.07h-.84v-11.07Z"/><path class="cls-2" d="M139.98,80.37h5.16v.77h-10.36v-.77h4.35v-2.29h.85v2.29Zm1.16,2.06c1.82,0,2.78,.91,2.78,2.09s-.96,2.09-2.78,2.09h-2.37c-1.81,0-2.77-.9-2.77-2.09s.96-2.09,2.77-2.09h2.37Zm1.28-2.9c.24-1.15,.36-2.37,.36-2.94h-6.62v-.78h7.47v.58c0,.88-.13,2.09-.38,3.26l-.83-.12Zm-1.49,6.32c1.43,0,2.12-.54,2.12-1.34s-.7-1.32-2.12-1.32h-1.97c-1.43,0-2.12,.55-2.12,1.32s.7,1.34,2.12,1.34h1.97Z"/><path class="cls-2" d="M149.21,75.43v1.74h2.16v.79h-5.18v-.79h2.17v-1.74h.85Zm1.69,6.26v.64c0,1.59-.86,2.6-2.1,2.6s-2.12-1.01-2.12-2.6v-.64c0-1.61,.86-2.59,2.12-2.59s2.1,.98,2.1,2.59Zm-.82,.05c0-1.15-.54-1.85-1.28-1.85s-1.31,.7-1.31,1.85v.54c0,1.15,.53,1.87,1.31,1.87s1.28-.72,1.28-1.87v-.54Zm4.71-6.32h.85v11.07h-.85v-5.95h-1.71v5.75h-.83v-10.69h.83v4.15h1.71v-4.33Z"/><path class="cls-2" d="M160.45,85.6v-.79h10.36v.79h-10.36Zm8.92-9.37v.79h-6.73v4.22h6.84v.78h-7.69v-5.79h7.58Z"/><path class="cls-2" d="M172.48,84.88v-4.74h4.29v-3.06h-4.29v-.78h5.16v4.62h-4.31v3.18h1.16c1.36,0,3.11-.16,4.5-.37l.11,.74c-1.31,.25-3.12,.41-4.75,.41h-1.87Zm7.84,1.61v-11.07h.85v11.07h-.85Z"/><path class="cls-2" d="M183.95,77.15v-.78h5.23v.85c0,3.13-1.87,5.87-4.89,7.87l-.5-.67c2.81-1.82,4.53-4.44,4.53-7.03v-.24h-4.37Zm7.75-1.73h.85v11.07h-.85v-11.07Z"/><path class="cls-2" d="M205.02,82.82c-1.04,.14-2.29,.25-3.48,.31-.08,1.1-.2,2.24-.35,3.45l-.84-.1c.13-1.16,.25-2.25,.32-3.32-.4,.01-.77,.02-1.13,.02h-1.92l-.05-.79h2.01c1.37,0,3.59-.13,5.33-.35l.1,.77Zm-6.8-4.27v-.2c0-1.64,1.29-2.45,2.9-2.45s2.89,.8,2.89,2.45v.2c0,1.63-1.3,2.43-2.89,2.43s-2.9-.8-2.9-2.43Zm.86-.01c0,1.09,.85,1.69,2.04,1.69s2.03-.6,2.03-1.69v-.18c0-1.1-.85-1.69-2.03-1.69s-2.04,.59-2.04,1.69v.18Zm6.9-3.11h.85v11.06h-.85v-11.06Z"/><path class="cls-2" d="M211.92,75.43v1.74h2.16v.79h-5.18v-.79h2.17v-1.74h.85Zm1.69,6.26v.64c0,1.59-.86,2.6-2.1,2.6s-2.12-1.01-2.12-2.6v-.64c0-1.61,.86-2.59,2.12-2.59s2.1,.98,2.1,2.59Zm-.82,.05c0-1.15-.54-1.85-1.28-1.85s-1.31,.7-1.31,1.85v.54c0,1.15,.53,1.87,1.31,1.87s1.28-.72,1.28-1.87v-.54Zm4.71-6.32h.85v11.07h-.85v-5.95h-1.72v5.75h-.83v-10.69h.83v4.15h1.72v-4.33Z"/><path class="cls-2" d="M223.16,81.37h10.36v.79h-4.75v2.19h-.85v-2.19h-4.76v-.79Zm.94-1.75c2.58-.82,3.89-1.87,3.89-3.08v-.08h-3.31v-.76h7.35v.76h-3.19v.07c0,.43-.1,.83-.29,1.21l4.03,1.91-.35,.71-4.15-1.98c-.71,.77-1.92,1.43-3.72,1.98l-.26-.73Zm1.32,3.66v2.42h6.96v.79h-7.82v-3.21h.86Z"/><path class="cls-2" d="M239.57,79.47v-3.29h.85v8.48h-5.29v-8.48h.84v3.29h3.6Zm-3.6,4.4h3.6v-3.62h-3.6v3.62Zm7.06-8.46h.85v11.07h-.85v-11.07Z"/><path class="cls-2" d="M259.19,81.37h-4.75v1.3h.78c1.81,0,2.76,.84,2.76,1.97s-.95,1.98-2.76,1.98h-2.42c-1.8,0-2.75-.83-2.75-1.98s.95-1.97,2.75-1.97h.79v-1.3h-4.76v-.77h10.36v.77Zm-9.43-2.16c2.58-.68,3.9-1.63,3.9-2.73v-.02h-3.32v-.76h7.35v.76h-3.19c0,.41-.1,.77-.28,1.12l4.02,1.66-.31,.72-4.21-1.74c-.72,.7-1.94,1.27-3.72,1.74l-.24-.73Zm5.26,4.22h-2.04c-1.42,0-2.09,.47-2.09,1.2s.67,1.22,2.09,1.22h2.04c1.42,0,2.09-.49,2.09-1.22s-.67-1.2-2.09-1.2Z"/><path class="cls-2" d="M269.34,78.4c0,1.64-1.28,2.47-2.87,2.47s-2.88-.83-2.88-2.47v-.2c0-1.66,1.28-2.47,2.88-2.47s2.87,.82,2.87,2.47v.2Zm-4.88-.01c0,1.1,.84,1.7,2.02,1.7s2.01-.6,2.01-1.7v-.18c0-1.12-.85-1.7-2.01-1.7s-2.02,.59-2.02,1.7v.18Zm7.15,4.95v-1.47h.86v4.63h-7.11v-4.63h.85v1.47h5.4Zm-5.4,2.38h5.4v-1.61h-5.4v1.61Zm5.4-10.29h.86v5.77h-.86v-5.77Z"/><path class="cls-2" d="M275.27,84.64v-8.33h.85v7.56h1c1.34,0,3.12-.16,4.56-.38l.1,.76c-1.33,.24-3.18,.41-4.81,.41h-1.69Zm7.72,1.85v-11.07h.85v11.07h-.85Z"/><path class="cls-2" d="M288.06,83.86c1.32,0,3.02-.16,4.43-.36l.1,.76c-1.31,.23-3.07,.38-4.67,.38h-1.73v-8.33h5.21v.79h-4.34v6.76h1.01Zm8.38-4.11v.79h-1.83v5.95h-.86v-11.07h.86v4.33h1.83Z"/><path class="cls-2" d="M297.5,85.36c0-.37,.29-.66,.66-.66s.67,.29,.67,.66-.3,.67-.67,.67-.66-.3-.66-.67Z"/></g></g></g></svg>