<?xml version="1.0" encoding="UTF-8"?><svg id="Layer_2" xmlns="http://www.w3.org/2000/svg" viewBox="0 0 100 100"><defs><style>.cls-1{fill:red;opacity:0;}.cls-2{fill:#eb283a;}</style></defs><g id="Layer_1-2"><rect class="cls-1" width="100" height="100"/><path class="cls-2" d="M64.22,78.28h-28.45c-7.75,0-14.05-6.3-14.05-14.05v-28.45c0-7.75,6.3-14.05,14.05-14.05h28.45c7.75,0,14.05,6.3,14.05,14.05v28.45c0,7.75-6.3,14.05-14.05,14.05ZM35.78,25.72c-5.54,0-10.05,4.51-10.05,10.05v28.45c0,5.54,4.51,10.05,10.05,10.05h28.45c5.54,0,10.05-4.51,10.05-10.05v-28.45c0-5.54-4.51-10.05-10.05-10.05h-28.45Z"/><path class="cls-2" d="M30.56,60.87c-.51,0-1.02-.2-1.41-.59-.78-.78-.78-2.05,0-2.83l8.48-8.48c.99-.99,2.3-1.53,3.7-1.53s2.71,.54,3.7,1.53l7.16,7.16c.46,.46,1.28,.46,1.74,0l14.1-14.1c.78-.78,2.05-.78,2.83,0,.78,.78,.78,2.05,0,2.83l-14.1,14.1c-2.04,2.04-5.36,2.04-7.4,0l-7.16-7.16c-.47-.47-1.28-.46-1.74,0l-8.48,8.48c-.39,.39-.9,.59-1.41,.59Z"/><path class="cls-2" d="M54.17,46.48c-3.89,0-7.06-3.17-7.06-7.06s3.17-7.06,7.06-7.06,7.06,3.17,7.06,7.06-3.17,7.06-7.06,7.06Zm0-10.12c-1.69,0-3.06,1.37-3.06,3.06s1.37,3.06,3.06,3.06,3.06-1.37,3.06-3.06-1.37-3.06-3.06-3.06Z"/></g></svg>