<?xml version="1.0" encoding="UTF-8"?><svg id="Layer_2" xmlns="http://www.w3.org/2000/svg" viewBox="0 0 100 100"><defs><style>.cls-1{fill:#fff;}.cls-2{fill:red;opacity:0;}</style></defs><g id="Layer_1-2"><rect class="cls-2" width="100" height="100"/><g><path class="cls-1" d="M69.9,72.95H30.1c-4.49,0-8.15-3.66-8.15-8.15v-22.19c0-4.49,3.66-8.15,8.15-8.15h39.81c4.49,0,8.15,3.66,8.15,8.15v22.19c0,4.49-3.66,8.15-8.15,8.15ZM30.1,37.46c-2.84,0-5.15,2.31-5.15,5.15v22.19c0,2.84,2.31,5.15,5.15,5.15h39.81c2.84,0,5.15-2.31,5.15-5.15v-22.19c0-2.84-2.31-5.15-5.15-5.15H30.1Z"/><path class="cls-1" d="M61.81,37.46c-.59,0-1.15-.35-1.39-.94l-1.98-4.89c-.39-.96-1.31-1.58-2.34-1.58h-12.19c-1.04,0-1.96,.62-2.34,1.58l-1.98,4.89c-.31,.77-1.18,1.14-1.95,.83-.77-.31-1.14-1.19-.83-1.95l1.98-4.89c.85-2.1,2.86-3.45,5.12-3.45h12.19c2.26,0,4.27,1.35,5.12,3.45l1.98,4.89c.31,.77-.06,1.64-.83,1.95-.18,.07-.38,.11-.56,.11Z"/><path class="cls-1" d="M50,65.93c-6.74,0-12.22-5.48-12.22-12.22s5.48-12.22,12.22-12.22,12.22,5.48,12.22,12.22-5.48,12.22-12.22,12.22Zm0-21.45c-5.09,0-9.22,4.14-9.22,9.22s4.14,9.22,9.22,9.22,9.22-4.14,9.22-9.22-4.14-9.22-9.22-9.22Z"/></g></g></svg>